<svg xmlns="http://www.w3.org/2000/svg" version="1.1" xmlns:xlink="http://www.w3.org/1999/xlink" xmlns:svgjs="http://svgjs.dev/svgjs" width="1000" height="1000" viewBox="0 0 1000 1000"><rect width="1000" height="1000" fill="#ffffff"></rect><g transform="matrix(0.7,0,0,0.7,150.34154856647302,129.30040485829954)"><svg viewBox="0 0 233 247" data-background-color="#ffffff" preserveAspectRatio="xMidYMid meet" height="1060" width="1000" xmlns="http://www.w3.org/2000/svg" xmlns:xlink="http://www.w3.org/1999/xlink"><g id="tight-bounds" transform="matrix(1,0,0,1,-0.11368687998316318,-0.09999999999999432)"><svg viewBox="0 0 233.22737375996635 247.2" height="247.2" width="233.22737375996635"><g><svg viewBox="0 0 233.22737375996635 247.2" height="247.2" width="233.22737375996635"><g><svg viewBox="0 0 245.672304 260.39050463820115" height="247.2" width="233.22737375996635"><g><svg viewBox="0 0 245.672304 260.39050463820115" height="260.39050463820115" width="245.672304"><g id="textblocktransform"><svg viewBox="0 0 245.672304 260.39050463820115" height="260.39050463820115" width="245.672304" id="textblock"><g><svg viewBox="0 0 245.672304 245.672304" height="245.672304" width="245.672304"><g transform="matrix(1,0,0,1,68.49787369494494,64.93063463062566)"><svg viewBox="0 0 108.67655661011011 115.81103473874866" height="115.81103473874866" width="108.67655661011011"><g><svg xmlns="http://www.w3.org/2000/svg" viewBox="26.999847412109375 27.889999389648438 46.000152587890625 49.02000427246094" x="0" y="0" height="115.81103473874866" width="108.67655661011011" class="icon-o-0" data-fill-palette-color="accent" id="o-0"><path d="M71.07 41H69.68V36.34A1.64 1.64 0 0 0 68 34.7H64.6A1.64 1.64 0 0 0 63 36.34c0 29.6 0 25.32 0 25.65 0 0 0 0 0 0l2.29 8.18a0.5 0.5 0 0 0 0.48 0.36h1.14a0.52 0.52 0 0 0 0.49-0.36c0.5-1.82 2.26-8 2.29-8.23 0 0 0-0.05 0-0.08V42h1.39A1 1 0 0 1 72 43v6.85a0.5 0.5 0 0 0 1 0V43A2 2 0 0 0 71.07 41ZM64 40.39h4.72v21H64Zm0.64-4.69H68a0.64 0.64 0 0 1 0.64 0.64v3H64v-3A0.64 0.64 0 0 1 64.6 35.7Zm1.91 33.88h-0.38l-2-7.17h4.41Z" fill="#ed2326" data-fill-palette-color="accent"></path><path d="M61 72.31c-0.12 0-2.92-1.18-2.92-5.49v-36a2.93 2.93 0 0 0-2.93-2.93H29.9A2.93 2.93 0 0 0 27 30.85v34a8.12 8.12 0 0 0 2.61 6A9.57 9.57 0 0 0 36 73.28h0.52a0.5 0.5 0 1 0 0-1H36a8.51 8.51 0 0 1-5.74-2.23A7.09 7.09 0 0 1 28 64.84v-34a1.93 1.93 0 0 1 1.93-1.93H55.12a1.93 1.93 0 0 1 1.93 1.93v36a7.1 7.1 0 0 0 2.1 5.46H55a0.5 0.5 0 1 0 0 1h5.75a0.5 0.5 0 0 0 0.18-1Z" fill="#ed2326" data-fill-palette-color="accent"></path><path d="M46.11 59.5A4.94 4.94 0 1 0 51 64.44 4.94 4.94 0 0 0 46.11 59.5Zm0 8.88A3.94 3.94 0 1 1 50 64.44 3.94 3.94 0 0 1 46.11 68.38Z" fill="#ed2326" data-fill-palette-color="accent"></path><polygon points="46.95 63.55 46.11 61.84 45.26 63.55 43.38 63.83 44.74 65.16 44.42 67.04 46.11 66.16 47.79 67.04 47.47 65.16 48.84 63.83 46.95 63.55" fill="#ed2326" data-fill-palette-color="accent"></polygon><path d="M33.58 35.7H51.91a0.51 0.51 0 0 0 0.5-0.5 0.5 0.5 0 0 0-0.5-0.5H33.58a0.5 0.5 0 0 0-0.5 0.5A0.51 0.51 0 0 0 33.58 35.7Z" fill="#ed2326" data-fill-palette-color="accent"></path><path d="M33.58 41.48H51.91a0.51 0.51 0 0 0 0.5-0.5 0.5 0.5 0 0 0-0.5-0.5H33.58a0.5 0.5 0 0 0-0.5 0.5A0.51 0.51 0 0 0 33.58 41.48Z" fill="#ed2326" data-fill-palette-color="accent"></path><path d="M33.58 47.26H51.91a0.51 0.51 0 0 0 0.5-0.5 0.5 0.5 0 0 0-0.5-0.5H33.58a0.5 0.5 0 0 0-0.5 0.5A0.51 0.51 0 0 0 33.58 47.26Z" fill="#ed2326" data-fill-palette-color="accent"></path><path d="M33.58 53h7.61a0.51 0.51 0 0 0 0.5-0.5 0.5 0.5 0 0 0-0.5-0.5H33.58a0.5 0.5 0 0 0-0.5 0.5A0.51 0.51 0 0 0 33.58 53Z" fill="#ed2326" data-fill-palette-color="accent"></path><path d="M53 62.22c-0.28-0.86 1.39-3-1.71-3.39-1-0.12-1-0.12-1.39-1-1.33-2.89-2.78-0.59-3.75-0.59s-2.44-2.26-3.76 0.59a2.38 2.38 0 0 1-0.48 0.78c-0.71 0.52-3.28-0.38-2.69 2.66 0.19 1 0.18 1-0.52 1.63-2.34 2.16 0.32 2.93 0.59 3.77 0.19 0.59-0.56 1.87 0.06 2.71 0.49 0.68 1.49 0.61 2.19 0.76-2 4.28-2.59 4.54-2.18 5s0.91-0.08 2.47-0.56c0.57 1.57 0.44 2.33 1.06 2.33s0.46-0.51 2.95-5.2a0.65 0.65 0 0 1 0.62 0c2.53 4.73 2.37 5.25 3 5.19s0.44-0.7 1-2.33c1.63 0.5 2.09 1 2.48 0.56s-0.1-0.64-2.19-5c1.71-0.36 2.78-0.19 2.32-2.53-0.18-1-0.18-1 0.52-1.62C55.89 63.82 53.23 63.06 53 62.22ZM43 75.07c-0.26-0.76-0.33-1.86-1-1.6l-1.24 0.45 1.54-3.06c0.47 1 0.89 1.91 2.07 1.56Zm7.27-1.6c-0.68-0.25-0.74 0.76-1 1.6L47.9 72.42c1.15 0.33 1.57-0.54 2.06-1.56l1.55 3.06ZM52 66.36c-0.27 0.83 0.33 2.1 0.08 2.43s-1.65 0.17-2.34 0.67-0.93 1.89-1.36 2-1.41-0.84-2.28-0.84-1.93 0.95-2.29 0.84-0.67-1.52-1.36-2-2.11-0.34-2.34-0.67 0.36-1.58 0.08-2.43-1.5-1.46-1.5-1.92 1.23-1.06 1.5-1.92-0.33-2.09-0.08-2.43 1.65-0.16 2.34-0.67 0.93-1.88 1.36-2 1.46 0.84 2.29 0.84a3 3 0 0 0 1.37-0.49c1-0.54 1-0.53 1.48 0.5 0.55 1.2 0.84 1.41 2.17 1.57 1.12 0.14 1.13 0.16 0.92 1.26a2.09 2.09 0 0 0 0.82 2.55c0.3 0.28 0.64 0.59 0.64 0.81C53.51 64.92 52.28 65.51 52 66.36Z" fill="#ed2326" data-fill-palette-color="accent"></path></svg></g></svg></g><g><path d="M12.752 88.103c-0.257-0.076-0.528-0.042-0.812 0.102-0.29 0.135-0.567 0.329-0.833 0.581-0.265 0.252-0.617 0.611-1.055 1.077v0c-0.51 0.533-0.936 0.958-1.28 1.275-0.341 0.311-0.711 0.554-1.108 0.731-0.397 0.177-0.788 0.208-1.173 0.094v0c-0.412-0.122-0.805-0.421-1.179-0.898-0.373-0.477-0.649-1.01-0.828-1.599-0.181-0.582-0.211-1.079-0.089-1.492v0c0.147-0.5 0.38-1.063 0.697-1.689 0.324-0.624 0.598-1.069 0.822-1.333v0l2.331 0.687-0.098 0.335c-0.79 0.215-1.444 0.514-1.962 0.898-0.51 0.386-0.845 0.849-1.004 1.389v0c-0.147 0.5-0.109 0.941 0.116 1.323 0.227 0.375 0.587 0.636 1.081 0.782v0c0.27 0.08 0.551 0.049 0.843-0.093 0.3-0.146 0.592-0.351 0.874-0.613 0.283-0.262 0.639-0.623 1.069-1.084v0c0.492-0.523 0.908-0.937 1.247-1.24 0.335-0.313 0.695-0.551 1.082-0.717 0.389-0.172 0.772-0.202 1.15-0.09v0c0.405 0.12 0.791 0.432 1.156 0.935 0.365 0.504 0.634 1.065 0.805 1.681 0.178 0.618 0.204 1.14 0.078 1.565v0c-0.155 0.527-0.404 1.133-0.745 1.819-0.335 0.687-0.62 1.169-0.856 1.444v0l-2.331-0.688 0.098-0.334c0.805-0.24 1.471-0.58 1.998-1.019 0.526-0.44 0.874-0.947 1.043-1.522v0c0.106-0.358 0.122-0.699 0.048-1.021-0.074-0.323-0.217-0.596-0.43-0.821-0.213-0.224-0.465-0.379-0.755-0.465z" fill="#4790fc" data-fill-palette-color="primary"></path><path d="M20.672 73.472l0.329 0.39-1.463 3.488-0.312-0.131-0.407-1.488-6.733-2.825 6.557 6.521-0.241 0.575-9.337-0.17 6.938 2.911 1.172-0.964 0.324 0.377-1.137 2.709-0.302-0.127-0.411-1.479-7.035-2.952-1.213 0.924-0.327-0.366 1.018-2.427 8.883 0.186-6.353-6.217 1.079-2.573 0.302 0.127 0.403 1.498 7.269 3.05z" fill="#4790fc" data-fill-palette-color="primary"></path><path d="M26.873 62.459l0.284 0.419-1.853 3.237-0.294-0.168-0.253-1.472-2.664-0.345-2.174 3.797 1.685 2.268 1.783-1.647 0.284 0.419-1.916 3.347-0.294-0.168-0.215-1.475-5.475-7.408-0.006-1.33 9.776 1.237zM21.557 64.067l-4.967-0.639 3.009 4.06z" fill="#4790fc" data-fill-palette-color="primary"></path><path d="M33.398 53.29l0.248 0.436-1.343 1.885-5.43-0.3-0.717 0.242-0.177-0.334 0.435-0.611c0.351-0.493 0.509-0.969 0.472-1.428-0.037-0.459-0.267-0.839-0.692-1.142v0c-0.568-0.405-1.151-0.582-1.748-0.532-0.603 0.046-1.12 0.37-1.549 0.973v0c-0.29 0.407-0.436 0.861-0.438 1.362v0l6.602 4.701 1.159-0.808 0.233 0.438-2.188 3.073-0.267-0.19-0.067-1.527-6.464-4.604-1.145 0.806-0.239-0.429 0.791-1.111c0.454-0.637 0.882-1.287 1.285-1.951v0c0.296-0.464 0.521-0.805 0.677-1.023v0c0.327-0.459 0.709-0.801 1.146-1.026 0.443-0.221 0.894-0.314 1.355-0.281 0.455 0.03 0.874 0.181 1.258 0.456v0c0.35 0.249 0.606 0.6 0.768 1.053 0.162 0.453 0.234 0.941 0.216 1.464-0.02 0.513-0.108 1.008-0.266 1.484v0l0.704-0.497 3.841 0.218z" fill="#4790fc" data-fill-palette-color="primary"></path><path d="M32.913 38.687l2.379 2.063-0.151 0.303-3-0.363-1.08 1.245 6.555 5.684 1.232-0.695 0.197 0.466-2.478 2.858-0.255-0.222 0.07-1.533-6.283-5.448-1.045 1.206 0.784 2.918-0.278 0.192-2.379-2.063 0.598-0.335 4.887-5.636z" fill="#4790fc" data-fill-palette-color="primary"></path><path d="M53.947 33.075l0.118 0.482-2.885 2.447-0.212-0.25 0.318-1.503-2.268-2.676-3.99 3.382 2.494 2.942 1.323-0.498 0.118 0.482-2.877 2.439-0.212-0.249 0.31-1.497-5.125-6.045-1.315 0.492-0.126-0.475 2.886-2.447 0.212 0.25-0.319 1.503 2.296 2.708 3.99-3.382-2.522-2.974-1.323 0.498-0.118-0.482 2.886-2.447 0.212 0.25-0.327 1.51 5.105 6.021z" fill="#4790fc" data-fill-palette-color="primary"></path><path d="M63.16 27.545l-0.664 0.171-6.304 4.297-0.19-0.279 0.46-1.464-4.452-6.531-1.354 0.359-0.075-0.485 6.121-4.173 0.401-0.555 1.625 2.384-0.208 0.257-2.525-1.003-3.013 2.054 2.363 3.466 1.746-1.19-0.175-1.927 0.28-0.191 2.22 3.257-0.245 0.448-1.774-1.195-1.772 1.208 2.488 3.65 2.968-2.024-0.016-3.045 0.321-0.091z" fill="#4790fc" data-fill-palette-color="primary"></path><path d="M74.521 20.638l0.016 0.506-3.297 1.744-0.158-0.299 0.573-1.379-2.067-1.715-3.867 2.046 0.212 2.817 2.386-0.438 0.017 0.505-3.409 1.804-0.159-0.298 0.607-1.362-0.666-9.188 0.707-1.127 7.599 6.272zM69.169 19.155l-3.856-3.197 0.372 5.04z" fill="#4790fc" data-fill-palette-color="primary"></path><path d="M84.066 17.382l-0.685 0.032-7.028 2.912-0.13-0.312 0.749-1.34-3.022-7.292-1.402 0.066 0.025-0.491 3.495-1.448 0.126 0.303-0.759 1.344 3.188 7.692 3.143-1.302 0.654-3.28 0.339-0.037z" fill="#4790fc" data-fill-palette-color="primary"></path><path d="M90.033 4.392l0.965 2.997-0.286 0.181-2.377-1.866-1.569 0.505 2.658 8.259 1.413 0.044-0.072 0.501-3.601 1.159-0.104-0.322 0.856-1.274-2.548-7.917-1.519 0.489-0.842 2.902-0.338 0.02-0.964-2.998 0.684 0.024 7.102-2.285z" fill="#4790fc" data-fill-palette-color="primary"></path><path d="M106.177 11.1l-0.129 0.479-3.708 0.752-0.065-0.321 1.004-1.163-0.698-3.438-5.126 1.04 0.767 3.78 1.4 0.201-0.13 0.479-3.697 0.751-0.065-0.321 0.994-1.161-1.577-7.767-1.389-0.203 0.119-0.477 3.707-0.753 0.065 0.321-1.004 1.163 0.707 3.48 5.126-1.041-0.776-3.821-1.399-0.201 0.129-0.479 3.707-0.753 0.065 0.321-1.014 1.166 1.571 7.735z" fill="#4790fc" data-fill-palette-color="primary"></path><path d="M121.675 10.545l-0.656-0.198-7.619 0.408-0.018-0.338 1.152-1.014-0.422-7.893-1.344-0.393 0.188-0.455 7.397-0.395 0.631-0.267 0.154 2.881-0.312 0.112-1.639-2.167-3.641 0.195 0.224 4.189 2.111-0.113 0.849-1.738 0.337-0.018 0.211 3.935-0.442 0.257-0.897-1.942-2.142 0.115 0.236 4.411 3.587-0.192 1.564-2.613 0.323 0.089z" fill="#4790fc" data-fill-palette-color="primary"></path><path d="M132.995 10.996l-0.633-0.263-7.6-0.355 0.016-0.337 1.247-0.894 0.369-7.885-1.298-0.537 0.232-0.433 3.779 0.176-0.015 0.328-1.259 0.893-0.388 8.318 3.399 0.158 1.987-2.689 0.323 0.11z" fill="#4790fc" data-fill-palette-color="primary"></path><path d="M139.799 11.169l-0.276 0.413-3.743-0.472 0.041-0.325 1.313-0.782 0.99-7.863-1.251-0.637 0.265-0.414 3.754 0.473-0.041 0.325-1.323 0.781-0.987 7.832z" fill="#4790fc" data-fill-palette-color="primary"></path><path d="M149.778 3.003c0.428 0.088 0.915 0.253 1.462 0.495 0.553 0.25 0.942 0.471 1.17 0.661v0l-0.494 2.401-0.332-0.068c-0.518-1.502-1.433-2.388-2.743-2.657v0c-0.58-0.119-1.138-0.061-1.676 0.173-0.537 0.235-1.001 0.618-1.39 1.149-0.388 0.524-0.658 1.152-0.809 1.883v0c-0.173 0.842-0.201 1.642-0.083 2.4 0.119 0.751 0.404 1.392 0.856 1.923 0.459 0.533 1.085 0.881 1.878 1.045v0c0.697 0.143 1.827-0.21 3.39-1.061v0l0.234 0.641-2.689 1.324c-0.325 0.041-0.633 0.053-0.924 0.037-0.29-0.024-0.594-0.068-0.911-0.134v0c-0.863-0.177-1.588-0.55-2.176-1.116-0.581-0.565-0.981-1.263-1.199-2.092-0.218-0.829-0.229-1.719-0.033-2.671v0c0.203-0.987 0.67-1.84 1.4-2.56 0.738-0.719 1.577-1.233 2.519-1.543 0.934-0.311 1.784-0.388 2.55-0.23z" fill="#4790fc" data-fill-palette-color="primary"></path><path d="M161.184 17.23l-0.546-0.414-7.283-2.271 0.1-0.323 1.434-0.549 2.353-7.546-1.122-0.837 0.334-0.361 7.071 2.206 0.685-0.03-0.859 2.754-0.331-0.004-0.783-2.601-3.48-1.086-1.249 4.005 2.018 0.629 1.401-1.334 0.323 0.101-1.174 3.762-0.503 0.087-0.165-2.132-2.048-0.639-1.315 4.216 3.43 1.07 2.376-1.904 0.271 0.195z" fill="#4790fc" data-fill-palette-color="primary"></path><path d="M176.989 13.077l-1.499 0.375-3.516 8.104-0.562-0.243-2.491-9.685-2.692 6.204 0.894 1.125-0.394 0.324-2.617-1.135 0.135-0.311 1.475-0.373 3.057-7.048-0.93-1.175 0.371-0.323 1.725 0.749 2.425 9.437 2.612-6.02-0.87-1.126 0.39-0.315 2.617 1.136z" fill="#4790fc" data-fill-palette-color="primary"></path><path d="M181.292 23.889c0.129-0.234 0.154-0.506 0.075-0.815-0.07-0.312-0.199-0.624-0.389-0.938-0.189-0.313-0.464-0.734-0.824-1.262v0c-0.411-0.612-0.734-1.12-0.971-1.524-0.23-0.4-0.389-0.813-0.476-1.239-0.087-0.426-0.034-0.815 0.16-1.166v0c0.207-0.376 0.584-0.696 1.131-0.958 0.546-0.262 1.126-0.417 1.74-0.466 0.607-0.052 1.099 0.026 1.476 0.234v0c0.457 0.251 0.957 0.599 1.5 1.043 0.54 0.45 0.915 0.814 1.125 1.09v0l-1.173 2.129-0.305-0.168c-0.04-0.818-0.192-1.521-0.455-2.108-0.267-0.581-0.647-1.008-1.141-1.28v0c-0.457-0.251-0.896-0.308-1.318-0.171-0.415 0.141-0.747 0.437-0.995 0.888v0c-0.136 0.247-0.166 0.528-0.09 0.843 0.079 0.325 0.215 0.653 0.41 0.985 0.195 0.332 0.471 0.758 0.829 1.277v0c0.405 0.593 0.72 1.088 0.943 1.485 0.233 0.394 0.389 0.797 0.468 1.21 0.084 0.416 0.031 0.797-0.159 1.143v0c-0.204 0.37-0.591 0.68-1.163 0.928-0.571 0.248-1.176 0.39-1.814 0.425-0.642 0.041-1.157-0.046-1.545-0.26v0c-0.481-0.265-1.02-0.638-1.616-1.119-0.599-0.475-1.008-0.857-1.227-1.146v0l1.173-2.129 0.305 0.168c0.061 0.838 0.25 1.561 0.567 2.17 0.316 0.608 0.737 1.057 1.261 1.346v0c0.327 0.18 0.656 0.269 0.987 0.266 0.331-0.003 0.629-0.084 0.894-0.243 0.265-0.16 0.47-0.372 0.617-0.638z" fill="#4790fc" data-fill-palette-color="primary"></path><path d="M190.46 32.957l-0.402-0.555-6.311-4.287 0.19-0.28 1.531-0.11 4.442-6.537-0.831-1.127 0.424-0.249 6.127 4.164 0.664 0.17-1.621 2.386-0.316-0.1 0.006-2.717-3.015-2.049-2.358 3.47 1.748 1.188 1.728-0.87 0.28 0.19-2.215 3.26-0.507-0.063 0.461-2.088-1.774-1.206-2.482 3.653 2.971 2.02 2.827-1.133 0.203 0.265z" fill="#4790fc" data-fill-palette-color="primary"></path><path d="M202.538 39.862c0.179-0.199 0.266-0.458 0.259-0.776 0.003-0.319-0.051-0.653-0.164-1.002-0.113-0.348-0.285-0.821-0.515-1.417v0c-0.26-0.69-0.459-1.258-0.598-1.705-0.133-0.442-0.193-0.88-0.18-1.315 0.012-0.435 0.153-0.801 0.421-1.099v0c0.288-0.319 0.727-0.544 1.319-0.675 0.592-0.131 1.192-0.149 1.801-0.056 0.603 0.088 1.064 0.276 1.383 0.564v0c0.387 0.349 0.795 0.802 1.223 1.358 0.423 0.562 0.705 1.001 0.847 1.318v0l-1.627 1.805-0.259-0.233c0.148-0.806 0.16-1.525 0.037-2.157-0.127-0.627-0.4-1.129-0.819-1.506v0c-0.387-0.349-0.802-0.505-1.244-0.467-0.437 0.043-0.827 0.255-1.171 0.637v0c-0.189 0.209-0.282 0.476-0.28 0.801 0.002 0.334 0.061 0.685 0.174 1.053 0.114 0.368 0.286 0.846 0.516 1.432v0c0.259 0.67 0.453 1.223 0.58 1.661 0.137 0.437 0.197 0.865 0.179 1.285-0.013 0.425-0.151 0.784-0.415 1.077v0c-0.283 0.314-0.731 0.527-1.344 0.638-0.613 0.112-1.234 0.112-1.863 0-0.634-0.107-1.116-0.309-1.445-0.606v0c-0.408-0.368-0.847-0.854-1.318-1.458-0.475-0.599-0.786-1.064-0.933-1.396v0l1.627-1.805 0.259 0.233c-0.131 0.83-0.113 1.577 0.057 2.242 0.169 0.665 0.476 1.197 0.921 1.598v0c0.277 0.25 0.578 0.411 0.9 0.485 0.323 0.073 0.632 0.062 0.926-0.033 0.294-0.095 0.543-0.255 0.746-0.481z" fill="#4790fc" data-fill-palette-color="primary"></path><path d="M210.085 45.672l-2.115 1.915 0.541 1.306-0.493 0.133-2.546-2.813 0.251-0.227 1.52 0.263 1.787-1.617 1.741-5.981-0.216-1.215 0.499-0.11 2.567 2.836-0.243 0.22-1.535-0.278-1.437 4.836 5.086-0.884-0.824-2.076 0.478-0.133 2.588 2.859-0.243 0.22-1.119-0.355z" fill="#4790fc" data-fill-palette-color="primary"></path><path d="M216.678 56.056c0.213-0.162 0.346-0.401 0.398-0.715 0.062-0.313 0.07-0.651 0.024-1.015-0.046-0.363-0.128-0.859-0.244-1.488v0c-0.128-0.726-0.219-1.321-0.271-1.786-0.049-0.459-0.027-0.901 0.066-1.325 0.093-0.425 0.299-0.759 0.618-1.003v0c0.342-0.26 0.816-0.4 1.421-0.418 0.606-0.019 1.199 0.074 1.779 0.278 0.576 0.199 0.995 0.469 1.256 0.81v0c0.316 0.415 0.633 0.935 0.95 1.561 0.312 0.63 0.508 1.114 0.588 1.452v0l-1.933 1.473-0.212-0.277c0.294-0.764 0.44-1.469 0.437-2.113-0.009-0.64-0.184-1.184-0.526-1.632v0c-0.316-0.415-0.695-0.644-1.136-0.689-0.437-0.039-0.86 0.097-1.27 0.41v0c-0.224 0.171-0.365 0.416-0.423 0.734-0.059 0.329-0.067 0.685-0.024 1.068 0.044 0.383 0.124 0.884 0.242 1.502v0c0.131 0.706 0.218 1.286 0.263 1.74 0.054 0.455 0.034 0.887-0.062 1.296-0.091 0.415-0.294 0.742-0.608 0.981v0c-0.336 0.256-0.816 0.382-1.438 0.379-0.623-0.004-1.233-0.119-1.831-0.346-0.603-0.222-1.039-0.51-1.308-0.863v0c-0.333-0.437-0.675-0.996-1.025-1.676-0.356-0.676-0.575-1.191-0.659-1.544v0l1.933-1.473 0.212 0.277c-0.283 0.791-0.403 1.529-0.36 2.213 0.043 0.684 0.246 1.265 0.609 1.742v0c0.226 0.297 0.491 0.511 0.796 0.642 0.304 0.132 0.609 0.178 0.916 0.139 0.307-0.039 0.581-0.15 0.822-0.334z" fill="#4790fc" data-fill-palette-color="primary"></path><path d="M230.683 63.014l-2.675 1.662-0.244-0.234 1.235-2.758-0.87-1.4-7.369 4.578 0.298 1.382-0.503 0.051-1.996-3.213 0.287-0.178 1.444 0.521 7.064-4.389-0.842-1.355-3.02-0.115-0.101-0.322 2.675-1.662 0.143 0.67 3.937 6.337z" fill="#4790fc" data-fill-palette-color="primary"></path><path d="M226.559 78.401l-0.074-0.681-3.356-6.852 0.304-0.149 1.384 0.664 7.098-3.477-0.163-1.39 0.491-0.006 3.258 6.653 0.493 0.476-2.591 1.269-0.225-0.243 1.352-2.356-1.603-3.274-3.768 1.845 0.93 1.898 1.932 0.101 0.148 0.304-3.539 1.733-0.409-0.306 1.436-1.585-0.944-1.927-3.967 1.943 1.58 3.227 3.017 0.417 0.044 0.331z" fill="#4790fc" data-fill-palette-color="primary"></path><path d="M232.319 92.473l-0.506-0.069-1.256-3.568 0.319-0.112 1.3 0.83 6.888-2.424-9.238-0.434-0.207-0.588 7.036-6.14-7.097 2.498-0.222 1.501-0.493-0.062-0.975-2.771 0.309-0.109 1.297 0.821 7.197-2.533 0.279-1.499 0.489 0.052 0.873 2.482-6.71 5.824 8.882 0.346 0.926 2.631-0.309 0.109-1.304-0.84-7.435 2.617z" fill="#4790fc" data-fill-palette-color="primary"></path><path d="M10.63 161.445c0.257-0.076 0.466-0.251 0.627-0.526 0.17-0.27 0.298-0.584 0.384-0.94 0.086-0.356 0.187-0.848 0.302-1.477v0c0.139-0.724 0.267-1.313 0.383-1.766 0.118-0.446 0.296-0.851 0.534-1.215 0.238-0.364 0.549-0.603 0.935-0.716v0c0.412-0.122 0.905-0.083 1.477 0.115 0.573 0.198 1.094 0.496 1.563 0.894 0.468 0.391 0.762 0.792 0.884 1.205v0c0.147 0.5 0.258 1.099 0.332 1.797 0.067 0.7 0.078 1.222 0.032 1.566v0l-2.331 0.687-0.099-0.334c0.547-0.609 0.934-1.216 1.161-1.819 0.219-0.601 0.249-1.172 0.09-1.712v0c-0.147-0.5-0.419-0.849-0.816-1.048-0.395-0.192-0.838-0.215-1.332-0.07v0c-0.27 0.08-0.489 0.258-0.657 0.535-0.173 0.286-0.307 0.616-0.403 0.989-0.096 0.373-0.199 0.87-0.309 1.491v0c-0.129 0.707-0.254 1.28-0.375 1.719-0.111 0.444-0.285 0.84-0.519 1.188-0.233 0.355-0.539 0.589-0.918 0.701v0c-0.405 0.12-0.898 0.067-1.479-0.159-0.581-0.225-1.11-0.55-1.587-0.975-0.485-0.423-0.79-0.847-0.915-1.273v0c-0.155-0.527-0.276-1.171-0.361-1.932-0.092-0.759-0.113-1.318-0.065-1.677v0l2.332-0.687 0.098 0.334c-0.546 0.638-0.921 1.285-1.124 1.94-0.203 0.655-0.221 1.27-0.051 1.844v0c0.106 0.358 0.277 0.653 0.514 0.884 0.237 0.231 0.506 0.383 0.806 0.456 0.301 0.073 0.596 0.067 0.887-0.019z" fill="#4790fc" data-fill-palette-color="primary"></path><path d="M15.124 177.778l-0.509-0.038-1.463-3.489 0.311-0.131 1.347 0.753 6.734-2.825-9.248 0.11-0.241-0.575 6.663-6.543-6.938 2.911-0.133 1.511-0.495-0.033-1.137-2.708 0.302-0.127 1.343 0.743 7.035-2.952 0.191-1.512 0.491 0.023 1.018 2.426-6.357 6.208 8.887-0.176 1.08 2.572-0.302 0.127-1.352-0.762-7.269 3.049z" fill="#4790fc" data-fill-palette-color="primary"></path><path d="M21.725 189.41l-0.505 0.033-1.853-3.237 0.294-0.168 1.397 0.527 1.646-2.123-2.173-3.797-2.809 0.305 0.517 2.371-0.505 0.033-1.916-3.347 0.294-0.168 1.38 0.561 9.161-0.971 1.15 0.669-6.016 7.804zM23.03 184.012l3.067-3.96-5.025 0.539z" fill="#4790fc" data-fill-palette-color="primary"></path><path d="M28.498 199.122l-0.493 0.092-1.343-1.885 2.059-5.034 0.006-0.756 0.373-0.059 0.435 0.611c0.351 0.493 0.75 0.798 1.196 0.913 0.445 0.115 0.88 0.022 1.305-0.28v0c0.568-0.405 0.926-0.898 1.074-1.479 0.154-0.585 0.016-1.179-0.413-1.782v0c-0.29-0.407-0.671-0.694-1.144-0.859v0l-6.601 4.702 0.385 1.36-0.49 0.077-2.189-3.072 0.267-0.191 1.465 0.436 6.464-4.604-0.388-1.345 0.484-0.086 0.791 1.111c0.454 0.637 0.928 1.255 1.424 1.853v0c0.342 0.431 0.59 0.756 0.745 0.974v0c0.327 0.459 0.525 0.932 0.595 1.418 0.064 0.491 0.005 0.948-0.177 1.372-0.177 0.42-0.457 0.767-0.842 1.04v0c-0.35 0.249-0.765 0.376-1.246 0.382-0.481 0.005-0.965-0.086-1.454-0.275-0.479-0.187-0.917-0.432-1.316-0.736v0l0.24 0.828-1.462 3.558z" fill="#4790fc" data-fill-palette-color="primary"></path><path d="M43.36 201.176l-2.379 2.063-0.278-0.192 0.784-2.918-1.08-1.246-6.554 5.684 0.513 1.317-0.489 0.13-2.478-2.858 0.255-0.222 1.508 0.287 6.283-5.448-1.045-1.205-3 0.363-0.151-0.303 2.38-2.063 0.246 0.64 4.888 5.636z" fill="#4790fc" data-fill-palette-color="primary"></path><path d="M50.07 220.42l-0.456 0.195-2.886-2.446 0.212-0.25 1.535 0.068 2.269-2.676-3.99-3.382-2.494 2.942 0.708 1.223-0.456 0.195-2.878-2.439 0.212-0.25 1.527 0.062 5.126-6.045-0.7-1.217 0.448-0.202 2.885 2.446-0.212 0.25-1.535-0.068-2.296 2.708 3.99 3.382 2.522-2.974-0.708-1.223 0.456-0.195 2.885 2.446-0.212 0.25-1.543-0.075-5.105 6.02z" fill="#4790fc" data-fill-palette-color="primary"></path><path d="M59.045 227.414l-0.402-0.555-6.304-4.298 0.191-0.279 1.531-0.107 4.452-6.532-0.83-1.128 0.425-0.247 6.12 4.172 0.664 0.171-1.625 2.384-0.315-0.1 0.01-2.717-3.012-2.054-2.363 3.467 1.746 1.19 1.73-0.867 0.279 0.19-2.22 3.257-0.506-0.064 0.464-2.088-1.773-1.208-2.488 3.65 2.969 2.023 2.828-1.128 0.203 0.266z" fill="#4790fc" data-fill-palette-color="primary"></path><path d="M71.746 233.527l-0.408 0.298-3.297-1.745 0.158-0.299 1.463-0.301 0.255-2.675-3.866-2.046-2.211 1.759 1.705 1.727-0.409 0.298-3.409-1.804 0.158-0.299 1.467-0.264 7.222-5.718 1.33-0.05-0.912 9.811zM69.963 228.267l0.474-4.985-3.958 3.142z" fill="#4790fc" data-fill-palette-color="primary"></path><path d="M81.269 238.29l-0.506-0.462-7.029-2.912 0.13-0.313 1.476-0.417 3.022-7.293-1.038-0.944 0.365-0.33 3.495 1.449-0.125 0.302-1.487 0.414-3.188 7.692 3.144 1.303 2.782-1.856 0.266 0.213z" fill="#4790fc" data-fill-palette-color="primary"></path><path d="M94.27 231.367l-0.965 2.997-0.338-0.019-0.842-2.902-1.569-0.505-2.658 8.258 1.122 0.861-0.351 0.364-3.601-1.159 0.104-0.322 1.438-0.536 2.548-7.916-1.519-0.489-2.377 1.866-0.286-0.181 0.965-2.998 0.542 0.419 7.102 2.286z" fill="#4790fc" data-fill-palette-color="primary"></path><path d="M104.984 243.698l-0.306 0.391-3.707-0.753 0.065-0.321 1.378-0.68 0.698-3.438-5.126-1.04-0.767 3.78 1.21 0.73-0.306 0.391-3.697-0.75 0.065-0.321 1.368-0.682 1.577-7.767-1.2-0.729 0.295-0.393 3.708 0.753-0.066 0.321-1.378 0.68-0.706 3.479 5.126 1.041 0.776-3.821-1.21-0.731 0.305-0.391 3.708 0.753-0.065 0.321-1.389 0.677-1.57 7.736z" fill="#4790fc" data-fill-palette-color="primary"></path><path d="M121.285 245.672l-0.632-0.266-7.618-0.408 0.018-0.337 1.254-0.886 0.422-7.892-1.294-0.535 0.234-0.432 7.397 0.395 0.656-0.197-0.154 2.88-0.321 0.078-1.4-2.328-3.64-0.195-0.224 4.189 2.11 0.113 1.03-1.638 0.337 0.018-0.21 3.936-0.466 0.208-0.686-2.027-2.142-0.114-0.235 4.411 3.587 0.191 1.834-2.431 0.311 0.123z" fill="#4790fc" data-fill-palette-color="primary"></path><path d="M133.336 245.224l-0.655-0.202-7.6 0.355-0.016-0.338 1.159-1.006-0.368-7.885-1.342-0.413 0.191-0.453 3.778-0.177 0.016 0.327-1.17 1.007 0.389 8.318 3.399-0.159 1.728-2.863 0.331 0.08z" fill="#4790fc" data-fill-palette-color="primary"></path><path d="M140.548 243.701l-0.165 0.469-3.743 0.471-0.041-0.325 1.078-1.084-0.99-7.863-1.37-0.307 0.154-0.466 3.754-0.473 0.041 0.325-1.089 1.085 0.987 7.832z" fill="#4790fc" data-fill-palette-color="primary"></path><path d="M146.979 232.313c0.428-0.088 0.941-0.129 1.539-0.123 0.607 0.012 1.052 0.061 1.335 0.146v0l0.494 2.402-0.331 0.068c-1.069-1.175-2.259-1.628-3.57-1.359v0c-0.58 0.119-1.07 0.393-1.471 0.821-0.401 0.428-0.676 0.963-0.824 1.604-0.15 0.635-0.15 1.318 0.001 2.05v0c0.173 0.842 0.463 1.588 0.87 2.237 0.406 0.643 0.921 1.12 1.546 1.43 0.632 0.309 1.344 0.382 2.137 0.218v0c0.697-0.143 1.596-0.914 2.696-2.313v0l0.469 0.497-1.948 2.278c-0.282 0.166-0.561 0.299-0.835 0.398-0.276 0.093-0.572 0.172-0.89 0.237v0c-0.863 0.177-1.676 0.122-2.44-0.167-0.757-0.29-1.4-0.773-1.927-1.448-0.527-0.675-0.889-1.489-1.084-2.442v0c-0.203-0.987-0.111-1.955 0.276-2.905 0.394-0.951 0.962-1.755 1.705-2.411 0.736-0.655 1.486-1.061 2.252-1.218z" fill="#4790fc" data-fill-palette-color="primary"></path><path d="M163.36 238.666l-0.685-0.03-7.283 2.272-0.101-0.323 0.867-1.266-2.354-7.546-1.399-0.05 0.069-0.487 7.072-2.206 0.546-0.414 0.859 2.754-0.274 0.185-2.123-1.695-3.48 1.085 1.249 4.005 2.017-0.629 0.395-1.894 0.322-0.101 1.174 3.763-0.364 0.357-1.349-1.66-2.047 0.638 1.315 4.217 3.43-1.07 0.872-2.917 0.334 0.006z" fill="#4790fc" data-fill-palette-color="primary"></path><path d="M171.931 224.186l-0.751 1.351 3.516 8.104-0.562 0.244-8.774-4.798 2.692 6.205 1.432 0.115-0.032 0.51-2.617 1.135-0.135-0.31 0.735-1.333-3.058-7.047-1.493-0.124 0.017-0.491 1.726-0.749 8.548 4.677-2.611-6.02-1.418-0.134 0.037-0.499 2.617-1.136z" fill="#4790fc" data-fill-palette-color="primary"></path><path d="M182.359 226.971c-0.129-0.234-0.345-0.401-0.649-0.499-0.301-0.108-0.634-0.166-1-0.173-0.366-0.008-0.869 0-1.508 0.022v0c-0.737 0.02-1.339 0.022-1.806 0.005-0.461-0.02-0.895-0.106-1.302-0.26-0.407-0.154-0.707-0.407-0.9-0.759v0c-0.207-0.376-0.276-0.866-0.205-1.467 0.071-0.602 0.25-1.175 0.537-1.719 0.281-0.541 0.61-0.915 0.987-1.123v0c0.457-0.251 1.018-0.488 1.684-0.71 0.669-0.216 1.177-0.338 1.522-0.368v0l1.172 2.129-0.305 0.169c-0.713-0.404-1.388-0.651-2.025-0.743-0.634-0.085-1.198 0.008-1.692 0.28v0c-0.457 0.251-0.74 0.592-0.848 1.022-0.103 0.427-0.03 0.865 0.217 1.316v0c0.136 0.247 0.357 0.422 0.665 0.527 0.316 0.107 0.667 0.167 1.052 0.18 0.385 0.013 0.893 0.007 1.522-0.018v0c0.718-0.025 1.304-0.027 1.759-0.003 0.458 0.013 0.882 0.097 1.273 0.252 0.397 0.151 0.691 0.4 0.881 0.745v0c0.204 0.37 0.258 0.863 0.163 1.479-0.095 0.615-0.299 1.202-0.611 1.76-0.309 0.564-0.657 0.953-1.047 1.167v0c-0.481 0.265-1.084 0.521-1.809 0.767-0.721 0.253-1.263 0.394-1.624 0.424v0l-1.172-2.129 0.305-0.168c0.741 0.396 1.453 0.623 2.136 0.681 0.683 0.058 1.287-0.057 1.812-0.346v0c0.327-0.18 0.578-0.411 0.753-0.692 0.175-0.281 0.266-0.577 0.272-0.886 0.007-0.309-0.063-0.597-0.209-0.862z" fill="#4790fc" data-fill-palette-color="primary"></path><path d="M194.566 222.008l-0.664 0.17-6.31 4.288-0.19-0.28 0.462-1.464-4.443-6.537-1.354 0.358-0.074-0.486 6.127-4.164 0.402-0.554 1.621 2.386-0.208 0.257-2.524-1.007-3.015 2.049 2.358 3.47 1.748-1.188-0.173-1.927 0.28-0.19 2.215 3.26-0.245 0.448-1.772-1.198-1.774 1.206 2.482 3.653 2.972-2.019-0.012-3.045 0.321-0.091z" fill="#4790fc" data-fill-palette-color="primary"></path><path d="M204.019 210.703c-0.179-0.199-0.428-0.312-0.745-0.338-0.317-0.036-0.655-0.017-1.014 0.06-0.358 0.076-0.846 0.198-1.463 0.365v0c-0.713 0.187-1.299 0.327-1.757 0.418-0.453 0.086-0.896 0.101-1.327 0.043-0.431-0.057-0.781-0.235-1.05-0.533v0c-0.288-0.319-0.466-0.78-0.534-1.382-0.068-0.602-0.025-1.201 0.131-1.797 0.15-0.591 0.385-1.03 0.705-1.318v0c0.387-0.349 0.88-0.707 1.477-1.075 0.602-0.363 1.069-0.598 1.398-0.705v0l1.627 1.805-0.259 0.234c-0.786-0.23-1.5-0.317-2.141-0.261-0.637 0.062-1.164 0.281-1.583 0.658v0c-0.387 0.349-0.585 0.745-0.593 1.189-0.003 0.439 0.168 0.849 0.512 1.231v0c0.189 0.209 0.444 0.33 0.767 0.362 0.333 0.032 0.688 0.011 1.066-0.065 0.378-0.075 0.871-0.197 1.478-0.364v0c0.693-0.188 1.264-0.323 1.712-0.405 0.449-0.091 0.881-0.106 1.297-0.045 0.421 0.057 0.764 0.232 1.027 0.525v0c0.283 0.314 0.448 0.781 0.496 1.402 0.048 0.621-0.017 1.239-0.194 1.853-0.172 0.62-0.423 1.078-0.752 1.375v0c-0.408 0.368-0.937 0.754-1.587 1.16-0.645 0.41-1.14 0.671-1.484 0.783v0l-1.627-1.805 0.259-0.234c0.812 0.217 1.557 0.275 2.235 0.176 0.679-0.099 1.24-0.35 1.685-0.75v0c0.277-0.25 0.469-0.532 0.575-0.846 0.106-0.314 0.127-0.622 0.063-0.924-0.064-0.303-0.198-0.566-0.4-0.792z" fill="#4790fc" data-fill-palette-color="primary"></path><path d="M209.547 202.763l2.116 1.915 1.246-0.668 0.18 0.477-2.545 2.813-0.251-0.227 0.11-1.539-1.786-1.617-6.124-1.139-1.188 0.336-0.158-0.486 2.567-2.836 0.243 0.22-0.125 1.555 4.955 0.95-1.385-4.973-1.983 1.026-0.181-0.462 2.589-2.86 0.243 0.22-0.242 1.149z" fill="#4790fc" data-fill-palette-color="primary"></path><path d="M218.437 194.207c-0.213-0.162-0.478-0.227-0.795-0.194-0.319 0.023-0.647 0.105-0.985 0.246-0.338 0.141-0.795 0.351-1.37 0.63v0c-0.666 0.316-1.216 0.561-1.65 0.735-0.43 0.169-0.861 0.265-1.295 0.288-0.434 0.023-0.811-0.086-1.13-0.329v0c-0.342-0.26-0.602-0.68-0.781-1.26-0.179-0.579-0.247-1.176-0.204-1.789 0.038-0.608 0.188-1.083 0.448-1.426v0c0.316-0.415 0.734-0.858 1.253-1.33 0.525-0.468 0.939-0.785 1.243-0.952v0l1.934 1.473-0.212 0.277c-0.815-0.081-1.533-0.034-2.152 0.14-0.614 0.178-1.092 0.492-1.434 0.94v0c-0.316 0.415-0.437 0.841-0.363 1.278 0.078 0.432 0.322 0.803 0.731 1.116v0c0.224 0.171 0.498 0.242 0.821 0.213 0.333-0.03 0.678-0.117 1.035-0.261 0.358-0.144 0.819-0.354 1.385-0.632v0c0.646-0.314 1.182-0.552 1.608-0.714 0.424-0.173 0.846-0.268 1.266-0.284 0.424-0.022 0.793 0.086 1.107 0.325v0c0.336 0.256 0.585 0.685 0.747 1.286 0.162 0.601 0.213 1.22 0.153 1.857-0.054 0.641-0.216 1.138-0.485 1.491v0c-0.333 0.437-0.781 0.915-1.345 1.433-0.558 0.523-0.996 0.871-1.314 1.045v0l-1.933-1.473 0.211-0.278c0.838 0.063 1.581-0.018 2.23-0.241 0.648-0.223 1.154-0.573 1.517-1.049v0c0.226-0.297 0.363-0.609 0.408-0.937 0.046-0.328 0.01-0.635-0.109-0.921-0.119-0.286-0.299-0.52-0.54-0.703z" fill="#4790fc" data-fill-palette-color="primary"></path><path d="M218.937 178.611l2.675 1.662-0.101 0.323-3.02 0.114-0.87 1.4 7.37 4.579 1.106-0.88 0.269 0.428-1.996 3.213-0.288-0.178-0.172-1.525-7.064-4.389-0.842 1.355 1.235 2.758-0.244 0.234-2.675-1.662 0.537-0.425 3.937-6.337z" fill="#4790fc" data-fill-palette-color="primary"></path><path d="M233.12 173.735l-0.492 0.476-3.355 6.852-0.304-0.149-0.324-1.5-7.099-3.476-0.999 0.982-0.305-0.385 3.258-6.653 0.075-0.681 2.59 1.269-0.054 0.326-2.69 0.377-1.604 3.274 3.768 1.845 0.929-1.898-1.104-1.588 0.148-0.304 3.54 1.734 0.009 0.51-2.133-0.162-0.943 1.926 3.967 1.943 1.58-3.227-1.52-2.638 0.234-0.238z" fill="#4790fc" data-fill-palette-color="primary"></path><path d="M237.994 158.447l0.351 0.37-1.256 3.569-0.319-0.113-0.493-1.462-6.888-2.424 6.929 6.125-0.207 0.588-9.33 0.379 7.097 2.498 1.113-1.031 0.345 0.357-0.976 2.771-0.309-0.109-0.497-1.452-7.196-2.534-1.156 0.994-0.349-0.347 0.874-2.482 8.879-0.336-6.707-5.834 0.926-2.631 0.309 0.109 0.49 1.472 7.436 2.617z" fill="#4790fc" data-fill-palette-color="primary"></path><path d="M2.054 124.461c0-2.187 1.773-3.959 3.959-3.959 2.187 0 3.959 1.773 3.959 3.959 0 2.187-1.773 3.959-3.959 3.959-2.187 0-3.959-1.773-3.959-3.959z" fill="#4790fc" data-fill-palette-color="primary"></path><path d="M235.7 124.461c0-2.187 1.773-3.959 3.959-3.959 2.187 0 3.959 1.773 3.96 3.959 0 2.187-1.773 3.959-3.96 3.959-2.187 0-3.959-1.773-3.959-3.959z" fill="#4790fc" data-fill-palette-color="primary"></path></g></svg></g><g transform="matrix(1,0,0,1,46.923410063999995,251.73386771703846)"><svg viewBox="0 0 151.825483872 8.65663692116272" height="8.65663692116272" width="151.825483872"><g transform="matrix(1,0,0,1,0,0)"><svg width="151.825483872" viewBox="0.699999988079071 -36.70000076293945 840 47.900001525878906" height="8.65663692116272" data-palette-color="#ed2326"><path d="M23.65-9.15L23.65-9.15Q23.65-5 19.68-2.2 15.7 0.6 10.45 0.6L10.45 0.6Q6.35 0.6 3.53-1.15 0.7-2.9 0.7-4.5L0.7-4.5Q1.5-6.45 3.75-8.7 6-10.95 7.9-11.05L7.9-11.05Q9.15-10.5 10.23-8.33 11.3-6.15 11.95-3.3L11.95-3.3Q14.65-3.4 14.65-6.35L14.65-6.35Q14.65-8.3 13.18-11.13 11.7-13.95 9.95-16.4 8.2-18.85 6.73-21.85 5.25-24.85 5.25-27.1L5.25-27.1Q5.25-30.8 8.65-33.15 12.05-35.5 16.23-35.5 20.4-35.5 22.73-33.7 25.05-31.9 25.05-29.55L25.05-29.55Q25.05-27.6 24.25-26.43 23.45-25.25 22.98-24.63 22.5-24 21.7-23.3L21.7-23.3Q20.2-22 19.4-21.4L19.4-21.4 18.65-20.85Q21.6-17.2 23.1-12.35L23.1-12.35Q23.65-10.6 23.65-9.15ZM21.05-29.2L21.05-29.2Q21.05-31.55 18.05-31.55L18.05-31.55Q16.3-31.55 15.23-30.8 14.15-30.05 14.15-28.93 14.15-27.8 15.08-26.2 16-24.6 16.55-23.95L16.55-23.95Q17.75-24.55 19.4-26.15 21.05-27.75 21.05-29.2ZM28.4 0.3L28.4 0.3 27.15 0.3Q27.15-3.25 28.52-9.63 29.9-16 29.9-16.7 29.9-17.4 29.45-18.25 29-19.1 28.55-19.55L28.55-19.55 28.1-20 28.2-20.75Q31.1-21.7 38.45-21.7L38.45-21.7Q39-20.55 39.2-19.25L39.2-19.25Q43.55-22.1 46.55-22.1L46.55-22.1Q48.15-22.1 49.27-21.25 50.4-20.4 50.85-19L50.85-19Q55-22.1 58.45-22.1L58.45-22.1Q60.7-22.1 61.97-20.73 63.25-19.35 63.25-17.43 63.25-15.5 62.15-11.2 61.05-6.9 61.05-5.68 61.05-4.45 61.45-4.45L61.45-4.45 64.05-5.1 64.95-2.6Q63.45-1.4 60.82-0.4 58.2 0.6 56.1 0.6L56.1 0.6Q51.8 0.6 51.8-3.75L51.8-3.75Q51.8-5.6 52.85-10.05 53.9-14.5 53.9-15.48 53.9-16.45 53.15-16.45L53.15-16.45Q52.1-16.45 50.9-15.6L50.9-15.6Q50.75-14.85 50.1-12L50.1-12Q48.7-5.6 48.7-0.65L48.7-0.65Q46.4 0.2 39.75 0.2L39.75 0.2Q39.6-0.35 39.6-2.4 39.6-4.45 40.7-9.65 41.8-14.85 41.8-15.65 41.8-16.45 41.1-16.45L41.1-16.45Q40.25-16.45 38.9-15.65L38.9-15.65Q38.75-14.8 37.95-11.3L37.95-11.3Q36.25-3.95 36.25-0.6L36.25-0.6Q33.9 0.3 28.4 0.3ZM90.8-20.25Q89.75-17 89-12.53 88.25-8.05 88.25-6.28 88.25-4.5 88.8-4.5L88.8-4.5 91.3-5.2 92.2-2.7Q90.6-1.45 88.12-0.43 85.65 0.6 83.75 0.6L83.75 0.6Q80.5 0.6 79.65-2.2L79.65-2.2Q75.7 0.6 72.67 0.6 69.65 0.6 68-1.6 66.35-3.8 66.35-7.9L66.35-7.9Q66.35-13.55 69.25-17.85 72.15-22.15 76.9-22.15L76.9-22.15Q79.5-22.15 82.2-20.7L82.2-20.7Q82.6-21.6 82.85-22L82.85-22Q86.45-22 90.8-20.25L90.8-20.25ZM75.75-8.53Q75.75-6 76.1-5.35 76.45-4.7 77.4-4.7 78.35-4.7 79.25-5.45L79.25-5.45Q79.45-11.25 81.15-17.6L81.15-17.6Q80.4-18.05 79.42-18.05 78.45-18.05 77.67-16.95 76.9-15.85 76.5-14.2L76.5-14.2Q75.75-11.05 75.75-8.53ZM93.89 0.3L93.89 0.3 93.49 0.3Q93.34-0.4 93.34-1.88 93.34-3.35 94.57-9.53 95.79-15.7 95.79-16.53 95.79-17.35 95.34-18.23 94.89-19.1 94.44-19.55L94.44-19.55 93.99-20 94.09-20.75Q97.09-21.7 104.04-21.7L104.04-21.7Q104.69-20.45 104.84-18.75L104.84-18.75Q107.89-22.15 110.24-22.15L110.24-22.15Q113.29-22.15 113.59-17L113.59-17Q113.49-16.9 113.34-16.68 113.19-16.45 112.64-15.9 112.09-15.35 111.49-14.9L111.49-14.9Q109.79-13.75 107.89-13.55L107.89-13.55Q107.84-13.55 107.22-14.65 106.59-15.75 106.17-15.75 105.74-15.75 104.59-14.85L104.59-14.85Q104.44-13.95 104.02-11.8 103.59-9.65 103.34-8.25L103.34-8.25Q102.59-4.55 102.59-2.05L102.59-2.05 102.64-0.55Q100.44 0.3 93.89 0.3ZM130.64-17.7L130.64-17.7 126.34-18.05Q124.34-9.1 124.17-7.65 123.99-6.2 123.99-5.28 123.99-4.35 124.59-4.35L124.59-4.35Q125.29-4.35 127.24-5.25L127.24-5.25 128.44-2.85Q126.84-1.4 124.39-0.4 121.94 0.6 119.67 0.6 117.39 0.6 116.04-0.58 114.69-1.75 114.69-3.9 114.69-6.05 115.94-10.8 117.19-15.55 117.59-17.85L117.59-17.85Q116.39-17.75 114.04-17.5L114.04-17.5Q113.84-18.55 113.84-19.48 113.84-20.4 114.09-21.55L114.09-21.55 118.09-21.55Q118.14-22.2 118.14-25.9L118.14-25.9 118.04-27.95Q122.89-29.55 127.29-29.55L127.29-29.55Q127.64-28.75 127.64-26.78 127.64-24.8 126.99-21.55L126.99-21.55 131.49-21.55Q131.49-19.5 130.64-17.7ZM164.56 0.6Q162.39 0.6 160.84-0.7 159.29-2 159.29-4.45 159.29-6.9 161.39-15.5L161.39-15.5Q159.89-15.85 157.79-15.85 155.69-15.85 153.34-15.25L153.34-15.25Q150.99-5.1 150.89-1.15L150.89-1.15Q148.69 0.15 141.94 0.15L141.94 0.15 140.99 0.15Q140.99-2.7 143.84-14.25 146.69-25.8 146.69-29.35L146.69-29.35Q146.69-30.2 146.16-31.23 145.64-32.25 145.09-32.85L145.09-32.85 144.54-33.45 144.64-34.45Q147.99-35.5 155.84-35.5L155.84-35.5Q156.64-34.4 156.64-32.1 156.64-29.8 154.39-19.85L154.39-19.85 162.39-19.85Q164.24-27.7 164.24-32.3L164.24-32.3Q164.24-33.2 164.19-33.75L164.19-33.75Q169.09-35.5 173.64-35.5L173.64-35.5Q173.99-35.15 173.99-32.98 173.99-30.8 171.51-19.95 169.04-9.1 169.04-6L169.04-6Q169.04-4.95 169.69-4.95L169.69-4.95Q170.94-4.95 172.39-5.6L172.39-5.6 173.49-2.8Q171.69-1.25 169.21-0.33 166.74 0.6 164.56 0.6ZM175.53-9.05L175.53-9.05Q175.53-15.25 179.31-18.7 183.08-22.15 188.63-22.15L188.63-22.15Q192.48-22.15 194.81-20.48 197.13-18.8 197.13-16L197.13-16Q197.13-13.95 195.88-12.35 194.63-10.75 192.83-9.9L192.83-9.9Q189.03-8.2 186.23-7.85L186.23-7.85 184.98-7.7Q185.53-4.4 188.28-4.4L188.28-4.4Q189.48-4.4 190.93-4.93 192.38-5.45 193.23-6L193.23-6 194.08-6.5 195.68-4.35Q195.68-4.35 195.13-3.8L195.13-3.8Q194.83-3.5 193.71-2.63 192.58-1.75 191.36-1.1 190.13-0.45 188.23 0.08 186.33 0.6 184.43 0.6L184.43 0.6Q180.18 0.6 177.86-1.88 175.53-4.35 175.53-9.05ZM184.78-11Q186.23-11.2 187.68-13.38 189.13-15.55 189.13-17.03 189.13-18.5 188.28-18.5L188.28-18.5Q187.03-18.5 185.98-16.55 184.93-14.6 184.78-11L184.78-11ZM222.23-20.25Q221.18-17 220.43-12.53 219.68-8.05 219.68-6.28 219.68-4.5 220.23-4.5L220.23-4.5 222.73-5.2 223.63-2.7Q222.03-1.45 219.56-0.43 217.08 0.6 215.18 0.6L215.18 0.6Q211.93 0.6 211.08-2.2L211.08-2.2Q207.13 0.6 204.11 0.6 201.08 0.6 199.43-1.6 197.78-3.8 197.78-7.9L197.78-7.9Q197.78-13.55 200.68-17.85 203.58-22.15 208.33-22.15L208.33-22.15Q210.93-22.15 213.63-20.7L213.63-20.7Q214.03-21.6 214.28-22L214.28-22Q217.88-22 222.23-20.25L222.23-20.25ZM207.18-8.53Q207.18-6 207.53-5.35 207.88-4.7 208.83-4.7 209.78-4.7 210.68-5.45L210.68-5.45Q210.88-11.25 212.58-17.6L212.58-17.6Q211.83-18.05 210.86-18.05 209.88-18.05 209.11-16.95 208.33-15.85 207.93-14.2L207.93-14.2Q207.18-11.05 207.18-8.53ZM237.88-2.8Q236.28-1.4 233.68-0.4 231.08 0.6 228.95 0.6 226.83 0.6 225.48-0.63 224.13-1.85 224.13-4.15 224.13-6.45 226.65-16.98 229.18-27.5 229.18-32.6L229.18-32.6Q229.18-33.7 228.88-35.4L228.88-35.4Q233.58-36.7 237.98-36.7L237.98-36.7Q238.43-35.9 238.43-34.1L238.43-34.1Q238.43-30.7 235.9-19.28 233.38-7.85 233.38-6.1 233.38-4.35 233.98-4.35L233.98-4.35Q234.48-4.35 236.13-5L236.13-5 236.68-5.25 237.88-2.8ZM256.33-17.7L256.33-17.7 252.03-18.05Q250.03-9.1 249.85-7.65 249.68-6.2 249.68-5.28 249.68-4.35 250.28-4.35L250.28-4.35Q250.98-4.35 252.93-5.25L252.93-5.25 254.13-2.85Q252.53-1.4 250.08-0.4 247.63 0.6 245.35 0.6 243.08 0.6 241.73-0.58 240.38-1.75 240.38-3.9 240.38-6.05 241.63-10.8 242.88-15.55 243.28-17.85L243.28-17.85Q242.08-17.75 239.73-17.5L239.73-17.5Q239.53-18.55 239.53-19.48 239.53-20.4 239.78-21.55L239.78-21.55 243.78-21.55Q243.83-22.2 243.83-25.9L243.83-25.9 243.73-27.95Q248.58-29.55 252.98-29.55L252.98-29.55Q253.33-28.75 253.33-26.78 253.33-24.8 252.68-21.55L252.68-21.55 257.18-21.55Q257.18-19.5 256.33-17.7ZM271.07-34.05L271.07-34.05Q271.07-30.55 268.52-19.65L268.52-19.65Q272.82-22.1 275.3-22.1 277.77-22.1 278.97-20.78 280.17-19.45 280.17-17.48 280.17-15.5 279.07-11.28 277.97-7.05 277.97-5.75 277.97-4.45 278.37-4.45L278.37-4.45 280.97-5.15 281.87-2.65Q280.32-1.5 277.6-0.45 274.87 0.6 272.77 0.6L272.77 0.6Q268.72 0.6 268.72-4L268.72-4Q268.72-6.1 269.77-10.2 270.82-14.3 270.82-15.38 270.82-16.45 270.07-16.45L270.07-16.45Q269.02-16.45 267.52-15.45L267.52-15.45Q265.27-5.9 265.27-2.15L265.27-2.15 265.32-0.95Q260.22 0.4 256.17 0.4L256.17 0.4Q255.87 0.25 255.87-1.2L255.87-1.2Q255.87-4.3 258.85-16.55 261.82-28.8 261.82-33.05L261.82-33.05Q261.82-34.35 261.62-35.35L261.62-35.35Q266.47-36.7 270.72-36.7L270.72-36.7Q271.07-35.85 271.07-34.05ZM305.32 0.65L305.32 0.65Q299.02 0.65 295.62-3.4L295.62-3.4Q293.77-5.6 293.77-8.75L293.77-8.75Q293.77-13 296.77-15.73 299.77-18.45 303.87-18.9L303.87-18.9Q297.57-20.6 297.57-26.15L297.57-26.15Q297.57-30.45 301.27-32.98 304.97-35.5 309.69-35.5 314.42-35.5 317.57-33.55 320.72-31.6 320.72-28.4L320.72-28.4Q320.72-26.55 319.72-24.9L319.72-24.9 319.37-24.35Q317.32-24.35 314.97-24.98 312.62-25.6 311.42-26.6L311.42-26.6 311.92-31.7Q311.17-32.05 310.42-32.05L310.42-32.05Q308.87-32.05 308.04-30.4 307.22-28.75 307.22-26.55 307.22-24.35 307.69-23.05 308.17-21.75 309.19-21.08 310.22-20.4 310.99-20.13 311.77-19.85 313.17-19.55L313.17-19.55 312.77-16.65Q309.32-16.65 306.42-14.7 303.52-12.75 303.52-9.45L303.52-9.45Q303.52-7.1 305.02-6.03 306.52-4.95 308.59-4.95 310.67-4.95 312.97-6 315.27-7.05 316.92-8.65L316.92-8.65 319.17-6.4Q317.02-3.45 313.22-1.4 309.42 0.65 305.32 0.65ZM334.07-2.8Q332.47-1.4 329.87-0.4 327.27 0.6 325.14 0.6 323.02 0.6 321.67-0.63 320.32-1.85 320.32-4.15 320.32-6.45 322.84-16.98 325.37-27.5 325.37-32.6L325.37-32.6Q325.37-33.7 325.07-35.4L325.07-35.4Q329.77-36.7 334.17-36.7L334.17-36.7Q334.62-35.9 334.62-34.1L334.62-34.1Q334.62-30.7 332.09-19.28 329.57-7.85 329.57-6.1 329.57-4.35 330.17-4.35L330.17-4.35Q330.67-4.35 332.32-5L332.32-5 332.87-5.25 334.07-2.8ZM334.91-9.05L334.91-9.05Q334.91-15.25 338.69-18.7 342.46-22.15 348.01-22.15L348.01-22.15Q351.86-22.15 354.19-20.48 356.51-18.8 356.51-16L356.51-16Q356.51-13.95 355.26-12.35 354.01-10.75 352.21-9.9L352.21-9.9Q348.41-8.2 345.61-7.85L345.61-7.85 344.36-7.7Q344.91-4.4 347.66-4.4L347.66-4.4Q348.86-4.4 350.31-4.93 351.76-5.45 352.61-6L352.61-6 353.46-6.5 355.06-4.35Q355.06-4.35 354.51-3.8L354.51-3.8Q354.21-3.5 353.09-2.63 351.96-1.75 350.74-1.1 349.51-0.45 347.61 0.08 345.71 0.6 343.81 0.6L343.81 0.6Q339.56 0.6 337.24-1.88 334.91-4.35 334.91-9.05ZM344.16-11Q345.61-11.2 347.06-13.38 348.51-15.55 348.51-17.03 348.51-18.5 347.66-18.5L347.66-18.5Q346.41-18.5 345.36-16.55 344.31-14.6 344.16-11L344.16-11ZM369.81-18.8L369.81-18.8Q368.26-18.8 367.16-16.05 366.06-13.3 366.06-10.5L366.06-10.5Q366.06-4.35 369.61-4.35L369.61-4.35Q371.86-4.35 374.71-6.5L374.71-6.5 376.31-4.3Q374.21-2 371.29-0.7 368.36 0.6 365.46 0.6L365.46 0.6Q361.56 0.6 359.14-1.78 356.71-4.15 356.71-8.95L356.71-8.95Q356.71-14.75 360.29-18.45 363.86-22.15 369.66-22.15L369.66-22.15Q373.41-22.15 375.56-20.63 377.71-19.1 377.71-16.78 377.71-14.45 376.31-12.75L376.31-12.75Q374.66-12.75 372.74-13.38 370.81-14 369.66-14.95L369.66-14.95 370.41-18.7Q370.11-18.8 369.81-18.8ZM395.51-17.7L395.51-17.7 391.21-18.05Q389.21-9.1 389.03-7.65 388.86-6.2 388.86-5.28 388.86-4.35 389.46-4.35L389.46-4.35Q390.16-4.35 392.11-5.25L392.11-5.25 393.31-2.85Q391.71-1.4 389.26-0.4 386.81 0.6 384.53 0.6 382.26 0.6 380.91-0.58 379.56-1.75 379.56-3.9 379.56-6.05 380.81-10.8 382.06-15.55 382.46-17.85L382.46-17.85Q381.26-17.75 378.91-17.5L378.91-17.5Q378.71-18.55 378.71-19.48 378.71-20.4 378.96-21.55L378.96-21.55 382.96-21.55Q383.01-22.2 383.01-25.9L383.01-25.9 382.91-27.95Q387.76-29.55 392.16-29.55L392.16-29.55Q392.51-28.75 392.51-26.78 392.51-24.8 391.86-21.55L391.86-21.55 396.36-21.55Q396.36-19.5 395.51-17.7ZM396.26 0.3L396.26 0.3 395.86 0.3Q395.71-0.4 395.71-1.88 395.71-3.35 396.93-9.53 398.16-15.7 398.16-16.53 398.16-17.35 397.71-18.23 397.26-19.1 396.81-19.55L396.81-19.55 396.36-20 396.46-20.75Q399.46-21.7 406.41-21.7L406.41-21.7Q407.06-20.45 407.21-18.75L407.21-18.75Q410.26-22.15 412.61-22.15L412.61-22.15Q415.66-22.15 415.96-17L415.96-17Q415.86-16.9 415.71-16.68 415.56-16.45 415.01-15.9 414.46-15.35 413.86-14.9L413.86-14.9Q412.16-13.75 410.26-13.55L410.26-13.55Q410.21-13.55 409.58-14.65 408.96-15.75 408.53-15.75 408.11-15.75 406.96-14.85L406.96-14.85Q406.81-13.95 406.38-11.8 405.96-9.65 405.71-8.25L405.71-8.25Q404.96-4.55 404.96-2.05L404.96-2.05 405.01-0.55Q402.81 0.3 396.26 0.3ZM422.8 0.6L422.8 0.6Q418.9 0.6 416.65-1.88 414.4-4.35 414.4-8.85L414.4-8.85Q414.4-14.35 417.65-18.18 420.9-22 426.2-22L426.2-22 428.45-21.8Q429.65-22.15 430.7-22.15L430.7-22.15Q433.2-22.15 434.28-20.45 435.35-18.75 435.5-15.6L435.5-15.6Q437.6-15.7 439.5-16.25L439.5-16.25 440.2-16.45Q440.55-16.1 440.7-14.35L440.7-14.35 440.75-13.8Q438.5-12.65 435.25-12L435.25-12Q434.15-6.7 430.9-3.05 427.65 0.6 422.8 0.6ZM423.8-9.05L423.8-9.05Q423.8-4.4 426.15-4.4L426.15-4.4Q427.8-4.4 429.53-6.5 431.25-8.6 431.9-11.6L431.9-11.6Q426.8-11.6 426.8-16.5L426.8-16.5Q426.8-17.35 426.95-18.25L426.95-18.25Q426.45-18.25 426.2-18.1L426.2-18.1Q425.35-17.2 424.58-14.48 423.8-11.75 423.8-9.05ZM438.3 0.3L438.3 0.3 437.45 0.3Q437.45-2.8 438.88-9.1 440.3-15.4 440.3-16.35 440.3-17.3 439.85-18.2 439.4-19.1 438.95-19.55L438.95-19.55 438.5-20 438.6-20.75Q441.55-21.7 448.9-21.7L448.9-21.7Q449.4-20.55 449.6-19.3L449.6-19.3Q454.15-22.1 457.25-22.1L457.25-22.1Q459.35-22.1 460.55-20.73 461.75-19.35 461.75-17.43 461.75-15.5 460.65-11.25 459.55-7 459.55-5.73 459.55-4.45 459.9-4.45L459.9-4.45 462.55-5.15 463.45-2.65Q461.85-1.45 459.28-0.43 456.7 0.6 454.55 0.6L454.55 0.6Q450.3 0.6 450.3-3.8L450.3-3.8Q450.3-5.7 451.35-10 452.4-14.3 452.4-15.38 452.4-16.45 451.7-16.45L451.7-16.45Q450.8-16.45 449.3-15.45L449.3-15.45Q449.1-14.55 448.3-11.1L448.3-11.1Q446.7-3.85 446.7-0.65L446.7-0.65Q444.25 0.3 438.3 0.3ZM476.85-18.78Q476.85-16.55 475.6-11.93 474.35-7.3 474.35-5.9 474.35-4.5 474.9-4.5 475.45-4.5 476.9-5L476.9-5 477.35-5.2 478.25-2.7Q476.55-1.4 474.02-0.4 471.5 0.6 469.45 0.6 467.4 0.6 466.22-0.55 465.05-1.7 465.05-3.88 465.05-6.05 466.27-10.53 467.5-15 467.5-16.2L467.5-16.2Q467.5-18.05 466.2-19.7L466.2-19.7 465.8-20.25 465.95-21.1Q468.55-21.9 476.05-21.9L476.05-21.9Q476.85-21 476.85-18.78ZM473.12-25.8Q470.85-25.8 469.57-27 468.3-28.2 468.3-30.08 468.3-31.95 469.87-33.23 471.45-34.5 473.7-34.5 475.95-34.5 477.2-33.45 478.45-32.4 478.45-30.5 478.45-28.6 476.92-27.2 475.4-25.8 473.12-25.8ZM492.5-18.8L492.5-18.8Q490.95-18.8 489.85-16.05 488.75-13.3 488.75-10.5L488.75-10.5Q488.75-4.35 492.3-4.35L492.3-4.35Q494.55-4.35 497.4-6.5L497.4-6.5 499-4.3Q496.9-2 493.97-0.7 491.05 0.6 488.15 0.6L488.15 0.6Q484.25 0.6 481.82-1.78 479.4-4.15 479.4-8.95L479.4-8.95Q479.4-14.75 482.97-18.45 486.55-22.15 492.35-22.15L492.35-22.15Q496.1-22.15 498.25-20.63 500.4-19.1 500.4-16.78 500.4-14.45 499-12.75L499-12.75Q497.35-12.75 495.42-13.38 493.5-14 492.35-14.95L492.35-14.95 493.1-18.7Q492.8-18.8 492.5-18.8ZM518.79-6.75L518.79-6.75Q518.79-3.65 515.92-1.53 513.04 0.6 509.19 0.6 505.34 0.6 502.87-0.7 500.39-2 500.39-3.18 500.39-4.35 501.92-6.18 503.44-8 505.04-8.3L505.04-8.3Q507.34-7.05 509.19-2.75L509.19-2.75Q510.64-2.75 510.64-3.7L510.64-3.7Q510.64-4.4 510.24-5 509.84-5.6 509.64-5.95 509.44-6.3 508.94-6.93 508.44-7.55 508.19-7.85L508.19-7.85Q506.94-9.35 505.94-10.6L505.94-10.6Q503.54-13.6 503.54-15.88 503.54-18.15 504.99-19.6L504.99-19.6Q507.49-22.15 512.34-22.15L512.34-22.15Q515.39-22.15 517.19-20.98 518.99-19.8 518.99-17.48 518.99-15.15 516.24-12.15L516.24-12.15Q518.79-9.2 518.79-6.75ZM515.44-15.93Q516.04-16.85 516.04-17.6 516.04-18.35 515.39-18.75 514.74-19.15 513.84-19.15 512.94-19.15 512.47-18.73 511.99-18.3 511.99-17.6 511.99-16.9 514.14-14.5L514.14-14.5Q514.84-15 515.44-15.93ZM548.99 1.2L548.99 1.2Q546.89 1.2 542.86-1 538.84-3.2 538.19-3.35L538.19-3.35Q535.19 0.6 532.59 0.6L532.59 0.6Q531.89 0.6 530.49-1.35 529.09-3.3 529.09-5L529.09-5Q529.09-5.75 530.64-6.88 532.19-8 534.19-8.45L534.19-8.45Q535.54-11.6 536.86-18 538.19-24.4 538.19-29.25L538.19-29.25Q538.19-30.05 537.66-31.05 537.14-32.05 536.64-32.65L536.64-32.65 536.09-33.25 536.24-34.25Q538.99-35.5 547.64-35.5L547.64-35.5Q548.44-34.25 548.44-31.25 548.44-28.25 545.79-20.85 543.14-13.45 540.49-8L540.49-8Q545.49-6.7 550.04-6.7L550.04-6.7Q551.09-6.7 551.76-7.2 552.44-7.7 553.24-9.3L553.24-9.3 555.99-8.35Q555.19-3.6 553.56-1.2 551.94 1.2 548.99 1.2ZM569.29-18.78Q569.29-16.55 568.04-11.93 566.79-7.3 566.79-5.9 566.79-4.5 567.34-4.5 567.88-4.5 569.34-5L569.34-5 569.79-5.2 570.69-2.7Q568.99-1.4 566.46-0.4 563.94 0.6 561.88 0.6 559.84 0.6 558.66-0.55 557.49-1.7 557.49-3.88 557.49-6.05 558.71-10.53 559.94-15 559.94-16.2L559.94-16.2Q559.94-18.05 558.63-19.7L558.63-19.7 558.24-20.25 558.38-21.1Q560.99-21.9 568.49-21.9L568.49-21.9Q569.29-21 569.29-18.78ZM565.56-25.8Q563.29-25.8 562.01-27 560.74-28.2 560.74-30.08 560.74-31.95 562.31-33.23 563.88-34.5 566.13-34.5 568.38-34.5 569.63-33.45 570.88-32.4 570.88-30.5 570.88-28.6 569.36-27.2 567.84-25.8 565.56-25.8ZM584.93-18.8L584.93-18.8Q583.38-18.8 582.28-16.05 581.18-13.3 581.18-10.5L581.18-10.5Q581.18-4.35 584.73-4.35L584.73-4.35Q586.98-4.35 589.83-6.5L589.83-6.5 591.43-4.3Q589.33-2 586.41-0.7 583.48 0.6 580.58 0.6L580.58 0.6Q576.68 0.6 574.26-1.78 571.83-4.15 571.83-8.95L571.83-8.95Q571.83-14.75 575.41-18.45 578.98-22.15 584.78-22.15L584.78-22.15Q588.53-22.15 590.68-20.63 592.83-19.1 592.83-16.78 592.83-14.45 591.43-12.75L591.43-12.75Q589.78-12.75 587.86-13.38 585.93-14 584.78-14.95L584.78-14.95 585.53-18.7Q585.23-18.8 584.93-18.8ZM593.03-9.05L593.03-9.05Q593.03-15.25 596.8-18.7 600.58-22.15 606.13-22.15L606.13-22.15Q609.98-22.15 612.3-20.48 614.63-18.8 614.63-16L614.63-16Q614.63-13.95 613.38-12.35 612.13-10.75 610.33-9.9L610.33-9.9Q606.53-8.2 603.73-7.85L603.73-7.85 602.48-7.7Q603.03-4.4 605.78-4.4L605.78-4.4Q606.98-4.4 608.43-4.93 609.88-5.45 610.73-6L610.73-6 611.58-6.5 613.18-4.35Q613.18-4.35 612.63-3.8L612.63-3.8Q612.33-3.5 611.2-2.63 610.08-1.75 608.86-1.1 607.63-0.45 605.73 0.08 603.83 0.6 601.93 0.6L601.93 0.6Q597.68 0.6 595.36-1.88 593.03-4.35 593.03-9.05ZM602.28-11Q603.73-11.2 605.18-13.38 606.63-15.55 606.63-17.03 606.63-18.5 605.78-18.5L605.78-18.5Q604.53-18.5 603.48-16.55 602.43-14.6 602.28-11L602.28-11ZM616.43 0.3L616.43 0.3 615.58 0.3Q615.58-2.8 617-9.1 618.43-15.4 618.43-16.35 618.43-17.3 617.98-18.2 617.53-19.1 617.08-19.55L617.08-19.55 616.63-20 616.73-20.75Q619.68-21.7 627.03-21.7L627.03-21.7Q627.53-20.55 627.73-19.3L627.73-19.3Q632.28-22.1 635.38-22.1L635.38-22.1Q637.48-22.1 638.68-20.73 639.88-19.35 639.88-17.43 639.88-15.5 638.78-11.25 637.68-7 637.68-5.73 637.68-4.45 638.03-4.45L638.03-4.45 640.68-5.15 641.58-2.65Q639.98-1.45 637.4-0.43 634.83 0.6 632.68 0.6L632.68 0.6Q628.43 0.6 628.43-3.8L628.43-3.8Q628.43-5.7 629.48-10 630.53-14.3 630.53-15.38 630.53-16.45 629.83-16.45L629.83-16.45Q628.93-16.45 627.43-15.45L627.43-15.45Q627.23-14.55 626.43-11.1L626.43-11.1Q624.83-3.85 624.83-0.65L624.83-0.65Q622.38 0.3 616.43 0.3ZM659.92-6.75L659.92-6.75Q659.92-3.65 657.05-1.53 654.17 0.6 650.32 0.6 646.47 0.6 644-0.7 641.52-2 641.52-3.18 641.52-4.35 643.05-6.18 644.57-8 646.17-8.3L646.17-8.3Q648.47-7.05 650.32-2.75L650.32-2.75Q651.77-2.75 651.77-3.7L651.77-3.7Q651.77-4.4 651.37-5 650.97-5.6 650.77-5.95 650.57-6.3 650.07-6.93 649.57-7.55 649.32-7.85L649.32-7.85Q648.07-9.35 647.07-10.6L647.07-10.6Q644.67-13.6 644.67-15.88 644.67-18.15 646.12-19.6L646.12-19.6Q648.62-22.15 653.47-22.15L653.47-22.15Q656.52-22.15 658.32-20.98 660.12-19.8 660.12-17.48 660.12-15.15 657.37-12.15L657.37-12.15Q659.92-9.2 659.92-6.75ZM656.57-15.93Q657.17-16.85 657.17-17.6 657.17-18.35 656.52-18.75 655.87-19.15 654.97-19.15 654.07-19.15 653.6-18.73 653.12-18.3 653.12-17.6 653.12-16.9 655.27-14.5L655.27-14.5Q655.97-15 656.57-15.93ZM661.77-9.05L661.77-9.05Q661.77-15.25 665.55-18.7 669.32-22.15 674.87-22.15L674.87-22.15Q678.72-22.15 681.05-20.48 683.37-18.8 683.37-16L683.37-16Q683.37-13.95 682.12-12.35 680.87-10.75 679.07-9.9L679.07-9.9Q675.27-8.2 672.47-7.85L672.47-7.85 671.22-7.7Q671.77-4.4 674.52-4.4L674.52-4.4Q675.72-4.4 677.17-4.93 678.62-5.45 679.47-6L679.47-6 680.32-6.5 681.92-4.35Q681.92-4.35 681.37-3.8L681.37-3.8Q681.07-3.5 679.95-2.63 678.82-1.75 677.6-1.1 676.37-0.45 674.47 0.08 672.57 0.6 670.67 0.6L670.67 0.6Q666.42 0.6 664.1-1.88 661.77-4.35 661.77-9.05ZM671.02-11Q672.47-11.2 673.92-13.38 675.37-15.55 675.37-17.03 675.37-18.5 674.52-18.5L674.52-18.5Q673.27-18.5 672.22-16.55 671.17-14.6 671.02-11L671.02-11ZM716.22-9.15L716.22-9.15Q716.22-5 712.24-2.2 708.27 0.6 703.02 0.6L703.02 0.6Q698.92 0.6 696.09-1.15 693.27-2.9 693.27-4.5L693.27-4.5Q694.07-6.45 696.32-8.7 698.57-10.95 700.47-11.05L700.47-11.05Q701.72-10.5 702.79-8.33 703.87-6.15 704.52-3.3L704.52-3.3Q707.22-3.4 707.22-6.35L707.22-6.35Q707.22-8.3 705.74-11.13 704.27-13.95 702.52-16.4 700.77-18.85 699.29-21.85 697.82-24.85 697.82-27.1L697.82-27.1Q697.82-30.8 701.22-33.15 704.62-35.5 708.79-35.5 712.97-35.5 715.29-33.7 717.62-31.9 717.62-29.55L717.62-29.55Q717.62-27.6 716.82-26.43 716.02-25.25 715.54-24.63 715.07-24 714.27-23.3L714.27-23.3Q712.77-22 711.97-21.4L711.97-21.4 711.22-20.85Q714.17-17.2 715.67-12.35L715.67-12.35Q716.22-10.6 716.22-9.15ZM713.62-29.2L713.62-29.2Q713.62-31.55 710.62-31.55L710.62-31.55Q708.87-31.55 707.79-30.8 706.72-30.05 706.72-28.93 706.72-27.8 707.64-26.2 708.57-24.6 709.12-23.95L709.12-23.95Q710.32-24.55 711.97-26.15 713.62-27.75 713.62-29.2ZM742.91-21.8L742.91-21.8 743.31-21.8Q743.06-20.5 742.46-16.2L742.46-16.2Q741.11-6.4 739.56-1.4L739.56-1.4Q735.71 11.2 727.21 11.2L727.21 11.2Q724.66 11.2 723.09 10.13 721.51 9.05 721.51 7.33 721.51 5.6 722.34 4.48 723.16 3.35 724.71 2.6L724.71 2.6Q727.36 1.3 731.21 0.45L731.21 0.45Q731.61-1.45 731.71-2L731.71-2Q727.81 0.1 724.31 0.1L724.31 0.1Q719.51 0.1 719.51-4.6L719.51-4.6Q719.51-6.25 720.61-11.08 721.71-15.9 721.71-17.75 721.71-19.6 721.46-20.5L721.46-20.5Q727.36-21.75 730.61-21.75L730.61-21.75Q731.01-21.15 731.01-19.38 731.01-17.6 729.89-12.5 728.76-7.4 728.76-6.5L728.76-6.5Q728.76-4.95 730.26-4.95L730.26-4.95Q731.11-4.95 732.21-5.4L732.21-5.4Q732.61-7.95 733.34-13.18 734.06-18.4 734.36-20.35L734.36-20.35Q735.66-20.95 738.29-21.38 740.91-21.8 742.91-21.8ZM725.06 6.35L725.06 6.35Q725.06 7.5 726.56 7.5L726.56 7.5Q727.31 7.5 728.54 6.48 729.76 5.45 730.51 3.45L730.51 3.45Q725.06 4.4 725.06 6.35ZM761.61-6.75L761.61-6.75Q761.61-3.65 758.74-1.53 755.86 0.6 752.01 0.6 748.16 0.6 745.69-0.7 743.21-2 743.21-3.18 743.21-4.35 744.74-6.18 746.26-8 747.86-8.3L747.86-8.3Q750.16-7.05 752.01-2.75L752.01-2.75Q753.46-2.75 753.46-3.7L753.46-3.7Q753.46-4.4 753.06-5 752.66-5.6 752.46-5.95 752.26-6.3 751.76-6.93 751.26-7.55 751.01-7.85L751.01-7.85Q749.76-9.35 748.76-10.6L748.76-10.6Q746.36-13.6 746.36-15.88 746.36-18.15 747.81-19.6L747.81-19.6Q750.31-22.15 755.16-22.15L755.16-22.15Q758.21-22.15 760.01-20.98 761.81-19.8 761.81-17.48 761.81-15.15 759.06-12.15L759.06-12.15Q761.61-9.2 761.61-6.75ZM758.26-15.93Q758.86-16.85 758.86-17.6 758.86-18.35 758.21-18.75 757.56-19.15 756.66-19.15 755.76-19.15 755.29-18.73 754.81-18.3 754.81-17.6 754.81-16.9 756.96-14.5L756.96-14.5Q757.66-15 758.26-15.93ZM781.06-17.7L781.06-17.7 776.76-18.05Q774.76-9.1 774.58-7.65 774.41-6.2 774.41-5.28 774.41-4.35 775.01-4.35L775.01-4.35Q775.71-4.35 777.66-5.25L777.66-5.25 778.86-2.85Q777.26-1.4 774.81-0.4 772.36 0.6 770.08 0.6 767.81 0.6 766.46-0.58 765.11-1.75 765.11-3.9 765.11-6.05 766.36-10.8 767.61-15.55 768.01-17.85L768.01-17.85Q766.81-17.75 764.46-17.5L764.46-17.5Q764.26-18.55 764.26-19.48 764.26-20.4 764.51-21.55L764.51-21.55 768.51-21.55Q768.56-22.2 768.56-25.9L768.56-25.9 768.46-27.95Q773.31-29.55 777.71-29.55L777.71-29.55Q778.06-28.75 778.06-26.78 778.06-24.8 777.41-21.55L777.41-21.55 781.91-21.55Q781.91-19.5 781.06-17.7ZM780.36-9.05L780.36-9.05Q780.36-15.25 784.13-18.7 787.91-22.15 793.46-22.15L793.46-22.15Q797.31-22.15 799.63-20.48 801.96-18.8 801.96-16L801.96-16Q801.96-13.95 800.71-12.35 799.46-10.75 797.66-9.9L797.66-9.9Q793.86-8.2 791.06-7.85L791.06-7.85 789.81-7.7Q790.36-4.4 793.11-4.4L793.11-4.4Q794.31-4.4 795.76-4.93 797.21-5.45 798.06-6L798.06-6 798.91-6.5 800.51-4.35Q800.51-4.35 799.96-3.8L799.96-3.8Q799.66-3.5 798.53-2.63 797.41-1.75 796.18-1.1 794.96-0.45 793.06 0.08 791.16 0.6 789.26 0.6L789.26 0.6Q785.01 0.6 782.68-1.88 780.36-4.35 780.36-9.05ZM789.61-11Q791.06-11.2 792.51-13.38 793.96-15.55 793.96-17.03 793.96-18.5 793.11-18.5L793.11-18.5Q791.86-18.5 790.81-16.55 789.76-14.6 789.61-11L789.61-11ZM804.15 0.3L804.15 0.3 802.9 0.3Q802.9-3.25 804.28-9.63 805.65-16 805.65-16.7 805.65-17.4 805.2-18.25 804.75-19.1 804.3-19.55L804.3-19.55 803.85-20 803.95-20.75Q806.85-21.7 814.2-21.7L814.2-21.7Q814.75-20.55 814.95-19.25L814.95-19.25Q819.3-22.1 822.3-22.1L822.3-22.1Q823.9-22.1 825.03-21.25 826.15-20.4 826.6-19L826.6-19Q830.75-22.1 834.2-22.1L834.2-22.1Q836.45-22.1 837.73-20.73 839-19.35 839-17.43 839-15.5 837.9-11.2 836.8-6.9 836.8-5.68 836.8-4.45 837.2-4.45L837.2-4.45 839.8-5.1 840.7-2.6Q839.2-1.4 836.58-0.4 833.95 0.6 831.85 0.6L831.85 0.6Q827.55 0.6 827.55-3.75L827.55-3.75Q827.55-5.6 828.6-10.05 829.65-14.5 829.65-15.48 829.65-16.45 828.9-16.45L828.9-16.45Q827.85-16.45 826.65-15.6L826.65-15.6Q826.5-14.85 825.85-12L825.85-12Q824.45-5.6 824.45-0.65L824.45-0.65Q822.15 0.2 815.5 0.2L815.5 0.2Q815.35-0.35 815.35-2.4 815.35-4.45 816.45-9.65 817.55-14.85 817.55-15.65 817.55-16.45 816.85-16.45L816.85-16.45Q816-16.45 814.65-15.65L814.65-15.65Q814.5-14.8 813.7-11.3L813.7-11.3Q812-3.95 812-0.6L812-0.6Q809.65 0.3 804.15 0.3Z" opacity="1" transform="matrix(1,0,0,1,0,0)" fill="#ed2326" class="slogan-text-1" data-fill-palette-color="secondary" id="text-1"></path></svg></g></svg></g></svg></g></svg></g></svg></g></svg></g><defs></defs></svg><rect width="233.22737375996635" height="247.2" fill="none" stroke="none" visibility="hidden"></rect></g></svg></g></svg>